<svg width="172" height="24" viewBox="0 0 172 24" fill="none" xmlns="http://www.w3.org/2000/svg">
<path d="M13.7383 16.3447H18.1182C18.0303 17.7803 17.6348 19.0547 16.9316 20.168C16.2383 21.2812 15.2666 22.1504 14.0166 22.7754C12.7764 23.4004 11.2822 23.7129 9.53418 23.7129C8.16699 23.7129 6.94141 23.4785 5.85742 23.0098C4.77344 22.5312 3.8457 21.8477 3.07422 20.959C2.3125 20.0703 1.73145 18.9961 1.33105 17.7363C0.930664 16.4766 0.730469 15.0654 0.730469 13.5029V12.0234C0.730469 10.4609 0.935547 9.0498 1.3457 7.79004C1.76562 6.52051 2.36133 5.44141 3.13281 4.55273C3.91406 3.66406 4.84668 2.98047 5.93066 2.50195C7.01465 2.02344 8.22559 1.78418 9.56348 1.78418C11.3408 1.78418 12.8398 2.10645 14.0605 2.75098C15.291 3.39551 16.2432 4.28418 16.917 5.41699C17.6006 6.5498 18.0107 7.83887 18.1475 9.28418H13.7529C13.7041 8.4248 13.5332 7.69727 13.2402 7.10156C12.9473 6.49609 12.5029 6.04199 11.9072 5.73926C11.3213 5.42676 10.54 5.27051 9.56348 5.27051C8.83105 5.27051 8.19141 5.40723 7.64453 5.68066C7.09766 5.9541 6.63867 6.36914 6.26758 6.92578C5.89648 7.48242 5.61816 8.18555 5.43262 9.03516C5.25684 9.875 5.16895 10.8613 5.16895 11.9941V13.5029C5.16895 14.6064 5.25195 15.5781 5.41797 16.418C5.58398 17.248 5.83789 17.9512 6.17969 18.5273C6.53125 19.0938 6.98047 19.5234 7.52734 19.8164C8.08398 20.0996 8.75293 20.2412 9.53418 20.2412C10.4521 20.2412 11.209 20.0947 11.8047 19.8018C12.4004 19.5088 12.8545 19.0742 13.167 18.498C13.4893 17.9219 13.6797 17.2041 13.7383 16.3447ZM25.1934 0.919922V23.4199H20.96V0.919922H25.1934ZM37.2344 19.8457V12.7852C37.2344 12.2773 37.1514 11.8428 36.9854 11.4814C36.8193 11.1104 36.5605 10.8223 36.209 10.6172C35.8672 10.4121 35.4229 10.3096 34.876 10.3096C34.4072 10.3096 34.002 10.3926 33.6602 10.5586C33.3184 10.7148 33.0547 10.9443 32.8691 11.2471C32.6836 11.54 32.5908 11.8867 32.5908 12.2871H28.3721C28.3721 11.6133 28.5283 10.9736 28.8408 10.3682C29.1533 9.7627 29.6074 9.23047 30.2031 8.77148C30.7988 8.30273 31.5068 7.93652 32.3271 7.67285C33.1572 7.40918 34.085 7.27734 35.1104 7.27734C36.3408 7.27734 37.4346 7.48242 38.3916 7.89258C39.3486 8.30273 40.1006 8.91797 40.6475 9.73828C41.2041 10.5586 41.4824 11.584 41.4824 12.8145V19.5967C41.4824 20.4658 41.5361 21.1787 41.6436 21.7354C41.751 22.2822 41.9072 22.7607 42.1123 23.1709V23.4199H37.8496C37.6445 22.9902 37.4883 22.4531 37.3809 21.8086C37.2832 21.1543 37.2344 20.5 37.2344 19.8457ZM37.791 13.7666L37.8203 16.1543H35.4619C34.9053 16.1543 34.4219 16.2178 34.0117 16.3447C33.6016 16.4717 33.2646 16.6523 33.001 16.8867C32.7373 17.1113 32.542 17.375 32.415 17.6777C32.2979 17.9805 32.2393 18.3125 32.2393 18.6738C32.2393 19.0352 32.3223 19.3623 32.4883 19.6553C32.6543 19.9385 32.8936 20.1631 33.2061 20.3291C33.5186 20.4854 33.8848 20.5635 34.3047 20.5635C34.9395 20.5635 35.4912 20.4365 35.96 20.1826C36.4287 19.9287 36.79 19.6162 37.0439 19.2451C37.3076 18.874 37.4443 18.5225 37.4541 18.1904L38.5674 19.9775C38.4111 20.3779 38.1963 20.793 37.9229 21.2227C37.6592 21.6523 37.3223 22.0576 36.9121 22.4385C36.502 22.8096 36.0088 23.1172 35.4326 23.3613C34.8564 23.5957 34.1729 23.7129 33.3818 23.7129C32.376 23.7129 31.4629 23.5127 30.6426 23.1123C29.832 22.7021 29.1875 22.1406 28.709 21.4277C28.2402 20.7051 28.0059 19.8848 28.0059 18.9668C28.0059 18.1367 28.1621 17.3994 28.4746 16.7549C28.7871 16.1104 29.2461 15.5684 29.8516 15.1289C30.4668 14.6797 31.2334 14.3428 32.1514 14.1182C33.0693 13.8838 34.1338 13.7666 35.3447 13.7666H37.791ZM49.1875 7.57031V23.4199H44.9541V7.57031H49.1875ZM44.6904 3.43945C44.6904 2.82422 44.9053 2.31641 45.335 1.91602C45.7646 1.51563 46.3408 1.31543 47.0635 1.31543C47.7764 1.31543 48.3477 1.51563 48.7773 1.91602C49.2168 2.31641 49.4365 2.82422 49.4365 3.43945C49.4365 4.05469 49.2168 4.5625 48.7773 4.96289C48.3477 5.36328 47.7764 5.56348 47.0635 5.56348C46.3408 5.56348 45.7646 5.36328 45.335 4.96289C44.9053 4.5625 44.6904 4.05469 44.6904 3.43945ZM56.8926 10.8516V23.4199H52.6592V7.57031H56.6289L56.8926 10.8516ZM56.3066 14.9385H55.1348C55.1348 13.835 55.2666 12.8193 55.5303 11.8916C55.8037 10.9541 56.1992 10.1436 56.7168 9.45996C57.2441 8.7666 57.8936 8.22949 58.665 7.84863C59.4365 7.46777 60.3301 7.27734 61.3457 7.27734C62.0488 7.27734 62.6934 7.38477 63.2793 7.59961C63.8652 7.80469 64.3682 8.13184 64.7881 8.58105C65.2178 9.02051 65.5498 9.59668 65.7842 10.3096C66.0186 11.0127 66.1357 11.8574 66.1357 12.8438V23.4199H61.917V13.3125C61.917 12.5898 61.8193 12.0332 61.624 11.6426C61.4287 11.252 61.1504 10.9785 60.7891 10.8223C60.4375 10.666 60.0127 10.5879 59.5146 10.5879C58.9678 10.5879 58.4893 10.7002 58.0791 10.9248C57.6787 11.1494 57.3467 11.4619 57.083 11.8623C56.8193 12.2529 56.624 12.7119 56.4971 13.2393C56.3701 13.7666 56.3066 14.333 56.3066 14.9385ZM65.7402 14.4551L64.2314 14.6455C64.2314 13.6104 64.3584 12.6484 64.6123 11.7598C64.876 10.8711 65.2617 10.0898 65.7695 9.41602C66.2871 8.74219 66.9268 8.21973 67.6885 7.84863C68.4502 7.46777 69.3291 7.27734 70.3252 7.27734C71.0869 7.27734 71.7803 7.38965 72.4053 7.61426C73.0303 7.8291 73.5625 8.17578 74.002 8.6543C74.4512 9.12305 74.793 9.73828 75.0273 10.5C75.2715 11.2617 75.3936 12.1943 75.3936 13.2979V23.4199H71.1602V13.2979C71.1602 12.5654 71.0625 12.0088 70.8672 11.6279C70.6816 11.2373 70.4082 10.9688 70.0469 10.8223C69.6953 10.666 69.2754 10.5879 68.7871 10.5879C68.2793 10.5879 67.835 10.6904 67.4541 10.8955C67.0732 11.0908 66.7559 11.3643 66.502 11.7158C66.248 12.0674 66.0576 12.4775 65.9307 12.9463C65.8037 13.4053 65.7402 13.9082 65.7402 14.4551Z" fill="#2756A0"/>
<path d="M80.9307 2.0918H84.6514L90.1299 17.751L95.6084 2.0918H99.3291L91.624 23.4199H88.6357L80.9307 2.0918ZM78.9238 2.0918H82.6299L83.3037 17.3555V23.4199H78.9238V2.0918ZM97.6299 2.0918H101.351V23.4199H96.9561V17.3555L97.6299 2.0918ZM113.494 19.8457V12.7852C113.494 12.2773 113.411 11.8428 113.245 11.4814C113.079 11.1104 112.82 10.8223 112.469 10.6172C112.127 10.4121 111.683 10.3096 111.136 10.3096C110.667 10.3096 110.262 10.3926 109.92 10.5586C109.578 10.7148 109.314 10.9443 109.129 11.2471C108.943 11.54 108.851 11.8867 108.851 12.2871H104.632C104.632 11.6133 104.788 10.9736 105.101 10.3682C105.413 9.7627 105.867 9.23047 106.463 8.77148C107.059 8.30273 107.767 7.93652 108.587 7.67285C109.417 7.40918 110.345 7.27734 111.37 7.27734C112.601 7.27734 113.694 7.48242 114.651 7.89258C115.608 8.30273 116.36 8.91797 116.907 9.73828C117.464 10.5586 117.742 11.584 117.742 12.8145V19.5967C117.742 20.4658 117.796 21.1787 117.903 21.7354C118.011 22.2822 118.167 22.7607 118.372 23.1709V23.4199H114.109C113.904 22.9902 113.748 22.4531 113.641 21.8086C113.543 21.1543 113.494 20.5 113.494 19.8457ZM114.051 13.7666L114.08 16.1543H111.722C111.165 16.1543 110.682 16.2178 110.271 16.3447C109.861 16.4717 109.524 16.6523 109.261 16.8867C108.997 17.1113 108.802 17.375 108.675 17.6777C108.558 17.9805 108.499 18.3125 108.499 18.6738C108.499 19.0352 108.582 19.3623 108.748 19.6553C108.914 19.9385 109.153 20.1631 109.466 20.3291C109.778 20.4854 110.145 20.5635 110.564 20.5635C111.199 20.5635 111.751 20.4365 112.22 20.1826C112.688 19.9287 113.05 19.6162 113.304 19.2451C113.567 18.874 113.704 18.5225 113.714 18.1904L114.827 19.9775C114.671 20.3779 114.456 20.793 114.183 21.2227C113.919 21.6523 113.582 22.0576 113.172 22.4385C112.762 22.8096 112.269 23.1172 111.692 23.3613C111.116 23.5957 110.433 23.7129 109.642 23.7129C108.636 23.7129 107.723 23.5127 106.902 23.1123C106.092 22.7021 105.447 22.1406 104.969 21.4277C104.5 20.7051 104.266 19.8848 104.266 18.9668C104.266 18.1367 104.422 17.3994 104.734 16.7549C105.047 16.1104 105.506 15.5684 106.111 15.1289C106.727 14.6797 107.493 14.3428 108.411 14.1182C109.329 13.8838 110.394 13.7666 111.604 13.7666H114.051ZM125.125 10.9541V23.4199H120.906V7.57031H124.861L125.125 10.9541ZM124.51 14.9385H123.367C123.367 13.7666 123.519 12.7119 123.821 11.7744C124.124 10.8271 124.549 10.0215 125.096 9.35742C125.643 8.68359 126.292 8.1709 127.044 7.81934C127.806 7.45801 128.655 7.27734 129.593 7.27734C130.335 7.27734 131.014 7.38477 131.629 7.59961C132.244 7.81445 132.771 8.15625 133.211 8.625C133.66 9.09375 134.002 9.71387 134.236 10.4854C134.48 11.2568 134.603 12.1992 134.603 13.3125V23.4199H130.354V13.2979C130.354 12.5947 130.257 12.0479 130.062 11.6572C129.866 11.2666 129.578 10.9932 129.197 10.8369C128.826 10.6709 128.367 10.5879 127.82 10.5879C127.254 10.5879 126.761 10.7002 126.341 10.9248C125.931 11.1494 125.589 11.4619 125.315 11.8623C125.052 12.2529 124.852 12.7119 124.715 13.2393C124.578 13.7666 124.51 14.333 124.51 14.9385ZM145.574 7.57031V10.5586H136.346V7.57031H145.574ZM138.631 3.65918H142.85V18.6445C142.85 19.1035 142.908 19.4551 143.025 19.6992C143.152 19.9434 143.338 20.1143 143.582 20.2119C143.826 20.2998 144.134 20.3438 144.505 20.3438C144.769 20.3438 145.003 20.334 145.208 20.3145C145.423 20.2852 145.604 20.2559 145.75 20.2266L145.765 23.332C145.403 23.4492 145.013 23.542 144.593 23.6104C144.173 23.6787 143.709 23.7129 143.201 23.7129C142.273 23.7129 141.463 23.5615 140.77 23.2588C140.086 22.9463 139.559 22.4482 139.188 21.7646C138.816 21.0811 138.631 20.1826 138.631 19.0693V3.65918ZM152.195 11.0273V23.4199H147.977V7.57031H151.946L152.195 11.0273ZM156.971 7.46777L156.897 11.3789C156.692 11.3496 156.443 11.3252 156.15 11.3057C155.867 11.2764 155.608 11.2617 155.374 11.2617C154.778 11.2617 154.261 11.3398 153.821 11.4961C153.392 11.6426 153.03 11.8623 152.737 12.1553C152.454 12.4482 152.239 12.8047 152.093 13.2246C151.956 13.6445 151.878 14.123 151.858 14.6602L151.009 14.3965C151.009 13.3711 151.111 12.4287 151.316 11.5693C151.521 10.7002 151.819 9.94336 152.21 9.29883C152.61 8.6543 153.099 8.15625 153.675 7.80469C154.251 7.45312 154.91 7.27734 155.652 7.27734C155.887 7.27734 156.126 7.29687 156.37 7.33594C156.614 7.36523 156.814 7.40918 156.971 7.46777ZM167.02 19.8457V12.7852C167.02 12.2773 166.937 11.8428 166.771 11.4814C166.604 11.1104 166.346 10.8223 165.994 10.6172C165.652 10.4121 165.208 10.3096 164.661 10.3096C164.192 10.3096 163.787 10.3926 163.445 10.5586C163.104 10.7148 162.84 10.9443 162.654 11.2471C162.469 11.54 162.376 11.8867 162.376 12.2871H158.157C158.157 11.6133 158.313 10.9736 158.626 10.3682C158.938 9.7627 159.393 9.23047 159.988 8.77148C160.584 8.30273 161.292 7.93652 162.112 7.67285C162.942 7.40918 163.87 7.27734 164.896 7.27734C166.126 7.27734 167.22 7.48242 168.177 7.89258C169.134 8.30273 169.886 8.91797 170.433 9.73828C170.989 10.5586 171.268 11.584 171.268 12.8145V19.5967C171.268 20.4658 171.321 21.1787 171.429 21.7354C171.536 22.2822 171.692 22.7607 171.897 23.1709V23.4199H167.635C167.43 22.9902 167.273 22.4531 167.166 21.8086C167.068 21.1543 167.02 20.5 167.02 19.8457ZM167.576 13.7666L167.605 16.1543H165.247C164.69 16.1543 164.207 16.2178 163.797 16.3447C163.387 16.4717 163.05 16.6523 162.786 16.8867C162.522 17.1113 162.327 17.375 162.2 17.6777C162.083 17.9805 162.024 18.3125 162.024 18.6738C162.024 19.0352 162.107 19.3623 162.273 19.6553C162.439 19.9385 162.679 20.1631 162.991 20.3291C163.304 20.4854 163.67 20.5635 164.09 20.5635C164.725 20.5635 165.276 20.4365 165.745 20.1826C166.214 19.9287 166.575 19.6162 166.829 19.2451C167.093 18.874 167.229 18.5225 167.239 18.1904L168.353 19.9775C168.196 20.3779 167.981 20.793 167.708 21.2227C167.444 21.6523 167.107 22.0576 166.697 22.4385C166.287 22.8096 165.794 23.1172 165.218 23.3613C164.642 23.5957 163.958 23.7129 163.167 23.7129C162.161 23.7129 161.248 23.5127 160.428 23.1123C159.617 22.7021 158.973 22.1406 158.494 21.4277C158.025 20.7051 157.791 19.8848 157.791 18.9668C157.791 18.1367 157.947 17.3994 158.26 16.7549C158.572 16.1104 159.031 15.5684 159.637 15.1289C160.252 14.6797 161.019 14.3428 161.937 14.1182C162.854 13.8838 163.919 13.7666 165.13 13.7666H167.576Z" fill="#59B2EB"/>
</svg>
