<svg width="1920" height="509" viewBox="0 0 1920 509" fill="none" xmlns="http://www.w3.org/2000/svg">
<rect width="1920" height="505.59" transform="translate(0 1.94995)" fill="#E6F4FF"/>
<g clip-path="url(#clip0_1_194)">
<path opacity="0.33" d="M908.125 27.87C516.372 63.19 402.631 14.27 292.732 27.87C126.156 48.59 -0.650024 24.83 -0.650024 24.83V0.949951H1920.65V24.83C1920.65 24.83 1801.34 35.27 1738.32 36.55C1675.3 37.87 1617.66 31.63 1592.68 27.71C1547.92 20.79 1431.29 4.42995 1334.46 2.82995C1237.63 1.22995 945.398 24.55 908.125 27.87Z" fill="white"/>
<path opacity="0.66" d="M1409.58 27.87C1322.17 27.87 1261.26 18.59 1161.54 12.23C1106.6 8.74995 872.773 8.18995 673.534 27.87C474.295 47.55 497.351 14.11 386.876 27.87C221.644 48.27 -0.650024 16.87 -0.650024 16.87V0.949951H1920.65V15.55C1920.65 15.55 1866.47 8.14995 1743.7 8.14995C1555.99 8.18995 1489.7 27.87 1409.58 27.87Z" fill="white"/>
<path d="M1471.26 12.51C1087 -10.49 960.192 38.71 712.152 20.31C464.305 1.66995 464.305 3.10995 354.406 9.18995C245.276 15.27 253.538 18.91 172.075 21.95C54.2992 26.43 -0.650024 0.949951 -0.650024 0.949951H1920.65C1920.65 0.949951 1901.63 17.31 1760.03 20.19C1618.43 23.07 1593.26 19.75 1471.26 12.51Z" fill="white"/>
</g>
<g clip-path="url(#clip1_1_194)">
<path opacity="0.33" d="M1011.88 481.63C1403.63 446.31 1517.37 495.23 1627.27 481.63C1793.84 460.91 1920.65 484.67 1920.65 484.67V508.55H-0.650146V484.67C-0.650146 484.67 118.663 474.23 181.681 472.95C244.7 471.63 302.339 477.87 327.316 481.79C372.082 488.71 488.705 505.07 585.538 506.67C682.372 508.27 974.602 484.95 1011.88 481.63Z" fill="white"/>
<path opacity="0.66" d="M510.416 481.63C597.835 481.63 658.74 490.91 758.455 497.27C813.405 500.75 1047.23 501.31 1246.47 481.63C1445.7 461.95 1422.65 495.39 1533.12 481.63C1698.36 461.23 1920.65 492.63 1920.65 492.63V508.55H-0.650146V493.95C-0.650146 493.95 53.5305 501.35 176.302 501.35C364.013 501.31 430.297 481.63 510.416 481.63Z" fill="white"/>
<path d="M448.742 496.99C833.002 519.99 959.808 470.79 1207.85 489.19C1455.7 507.83 1455.7 506.39 1565.59 500.31C1674.72 494.23 1666.46 490.59 1747.93 487.55C1865.7 483.07 1920.65 508.55 1920.65 508.55H-0.650146C-0.650146 508.55 18.3707 492.19 159.97 489.31C301.57 486.43 326.739 489.75 448.742 496.99Z" fill="white"/>
</g>
<defs>
<clipPath id="clip0_1_194">
<rect width="1920" height="40" fill="white" transform="translate(0 0.949951)"/>
</clipPath>
<clipPath id="clip1_1_194">
<rect width="1920" height="40" fill="white" transform="matrix(-1 0 0 -1 1920 508.55)"/>
</clipPath>
</defs>
</svg>
