<svg width="1920" height="421" viewBox="0 0 1920 421" fill="none" xmlns="http://www.w3.org/2000/svg">
<rect width="1920" height="420" fill="#032251"/>
<g clip-path="url(#clip0_1_29)">
<path opacity="0.33" d="M1011.88 394.08C1403.63 358.76 1517.37 407.68 1627.27 394.08C1793.84 373.36 1920.65 397.12 1920.65 397.12V421H-0.650146V397.12C-0.650146 397.12 118.663 386.68 181.681 385.4C244.7 384.08 302.339 390.32 327.316 394.24C372.082 401.16 488.705 417.52 585.538 419.12C682.372 420.72 974.602 397.4 1011.88 394.08Z" fill="white"/>
<path opacity="0.66" d="M510.416 394.08C597.835 394.08 658.74 403.36 758.455 409.72C813.405 413.2 1047.23 413.76 1246.47 394.08C1445.7 374.4 1422.65 407.84 1533.12 394.08C1698.36 373.68 1920.65 405.08 1920.65 405.08V421H-0.650146V406.4C-0.650146 406.4 53.5305 413.8 176.302 413.8C364.013 413.76 430.297 394.08 510.416 394.08Z" fill="white"/>
<path d="M448.742 409.44C833.002 432.44 959.808 383.24 1207.85 401.64C1455.7 420.28 1455.7 418.84 1565.59 412.76C1674.72 406.68 1666.46 403.04 1747.93 400C1865.7 395.52 1920.65 421 1920.65 421H-0.650146C-0.650146 421 18.3707 404.64 159.97 401.76C301.57 398.88 326.739 402.2 448.742 409.44Z" fill="white"/>
</g>
<defs>
<clipPath id="clip0_1_29">
<rect width="1920" height="40" fill="white" transform="matrix(-1 0 0 -1 1920 421)"/>
</clipPath>
</defs>
</svg>
