<svg width="1920" height="422" viewBox="0 0 1920 422" fill="none" xmlns="http://www.w3.org/2000/svg">
<rect width="1920" height="419.09" transform="translate(0 1.18994)" fill="#E6F4FF"/>
<g clip-path="url(#clip0_1_74)">
<path opacity="0.33" d="M908.125 27.1099C516.372 62.4299 402.631 13.5099 292.732 27.1099C126.156 47.8299 -0.650024 24.0699 -0.650024 24.0699V0.189941H1920.65V24.0699C1920.65 24.0699 1801.34 34.5099 1738.32 35.7899C1675.3 37.1099 1617.66 30.8699 1592.68 26.9499C1547.92 20.0299 1431.29 3.66994 1334.46 2.06994C1237.63 0.469941 945.398 23.7899 908.125 27.1099Z" fill="white"/>
<path opacity="0.66" d="M1409.58 27.1099C1322.17 27.1099 1261.26 17.8299 1161.54 11.4699C1106.6 7.98994 872.773 7.42994 673.534 27.1099C474.295 46.7899 497.351 13.3499 386.876 27.1099C221.644 47.5099 -0.650024 16.1099 -0.650024 16.1099V0.189941H1920.65V14.7899C1920.65 14.7899 1866.47 7.38994 1743.7 7.38994C1555.99 7.42994 1489.7 27.1099 1409.58 27.1099Z" fill="white"/>
<path d="M1471.26 11.7499C1087 -11.2501 960.192 37.9499 712.152 19.5499C464.305 0.909943 464.305 2.34994 354.406 8.42994C245.276 14.5099 253.538 18.1499 172.075 21.1899C54.2992 25.6699 -0.650024 0.189941 -0.650024 0.189941H1920.65C1920.65 0.189941 1901.63 16.5499 1760.03 19.4299C1618.43 22.3099 1593.26 18.9899 1471.26 11.7499Z" fill="white"/>
</g>
<g clip-path="url(#clip1_1_74)">
<path opacity="0.33" d="M1011.88 394.36C1403.63 359.04 1517.37 407.96 1627.27 394.36C1793.84 373.64 1920.65 397.4 1920.65 397.4V421.28H-0.650146V397.4C-0.650146 397.4 118.663 386.96 181.681 385.68C244.7 384.36 302.339 390.6 327.316 394.52C372.082 401.44 488.705 417.8 585.538 419.4C682.372 421 974.602 397.68 1011.88 394.36Z" fill="white"/>
<path opacity="0.66" d="M510.416 394.36C597.835 394.36 658.74 403.64 758.455 410C813.405 413.48 1047.23 414.04 1246.47 394.36C1445.7 374.68 1422.65 408.12 1533.12 394.36C1698.36 373.96 1920.65 405.36 1920.65 405.36V421.28H-0.650146V406.68C-0.650146 406.68 53.5305 414.08 176.302 414.08C364.013 414.04 430.297 394.36 510.416 394.36Z" fill="white"/>
<path d="M448.742 409.72C833.002 432.72 959.808 383.52 1207.85 401.92C1455.7 420.56 1455.7 419.12 1565.59 413.04C1674.72 406.96 1666.46 403.32 1747.93 400.28C1865.7 395.8 1920.65 421.28 1920.65 421.28H-0.650146C-0.650146 421.28 18.3707 404.92 159.97 402.04C301.57 399.16 326.739 402.48 448.742 409.72Z" fill="white"/>
</g>
<defs>
<clipPath id="clip0_1_74">
<rect width="1920" height="40" fill="white" transform="translate(0 0.189941)"/>
</clipPath>
<clipPath id="clip1_1_74">
<rect width="1920" height="40" fill="white" transform="matrix(-1 0 0 -1 1920 421.28)"/>
</clipPath>
</defs>
</svg>
