<svg width="1920" height="519" viewBox="0 0 1920 519" fill="none" xmlns="http://www.w3.org/2000/svg">
<rect width="1920" height="516.59" transform="translate(0 1.13)" fill="#E6F4FF"/>
<g clip-path="url(#clip0_1_122)">
<path opacity="0.33" d="M908.125 27.05C516.372 62.37 402.631 13.45 292.732 27.05C126.156 47.77 -0.650024 24.01 -0.650024 24.01V0.130005H1920.65V24.01C1920.65 24.01 1801.34 34.45 1738.32 35.73C1675.3 37.05 1617.66 30.81 1592.68 26.89C1547.92 19.97 1431.29 3.61 1334.46 2.01C1237.63 0.410005 945.398 23.73 908.125 27.05Z" fill="white"/>
<path opacity="0.66" d="M1409.58 27.05C1322.17 27.05 1261.26 17.77 1161.54 11.41C1106.6 7.93001 872.773 7.37001 673.534 27.05C474.295 46.73 497.351 13.29 386.876 27.05C221.644 47.45 -0.650024 16.05 -0.650024 16.05V0.130005H1920.65V14.73C1920.65 14.73 1866.47 7.33001 1743.7 7.33001C1555.99 7.37001 1489.7 27.05 1409.58 27.05Z" fill="white"/>
<path d="M1471.26 11.69C1087 -11.31 960.192 37.89 712.152 19.49C464.305 0.850006 464.305 2.29001 354.406 8.37001C245.276 14.45 253.538 18.09 172.075 21.13C54.2992 25.61 -0.650024 0.130005 -0.650024 0.130005H1920.65C1920.65 0.130005 1901.63 16.49 1760.03 19.37C1618.43 22.25 1593.26 18.93 1471.26 11.69Z" fill="white"/>
</g>
<g clip-path="url(#clip1_1_122)">
<path opacity="0.33" d="M1011.88 491.8C1403.63 456.48 1517.37 505.4 1627.27 491.8C1793.84 471.08 1920.65 494.84 1920.65 494.84V518.72H-0.650146V494.84C-0.650146 494.84 118.663 484.4 181.681 483.12C244.7 481.8 302.339 488.04 327.316 491.96C372.082 498.88 488.705 515.24 585.538 516.84C682.372 518.44 974.602 495.12 1011.88 491.8Z" fill="white"/>
<path opacity="0.66" d="M510.416 491.8C597.835 491.8 658.74 501.08 758.455 507.44C813.405 510.92 1047.23 511.48 1246.47 491.8C1445.7 472.12 1422.65 505.56 1533.12 491.8C1698.36 471.4 1920.65 502.8 1920.65 502.8V518.72H-0.650146V504.12C-0.650146 504.12 53.5305 511.52 176.302 511.52C364.013 511.48 430.297 491.8 510.416 491.8Z" fill="white"/>
<path d="M448.742 507.16C833.002 530.16 959.808 480.96 1207.85 499.36C1455.7 518 1455.7 516.56 1565.59 510.48C1674.72 504.4 1666.46 500.76 1747.93 497.72C1865.7 493.24 1920.65 518.72 1920.65 518.72H-0.650146C-0.650146 518.72 18.3707 502.36 159.97 499.48C301.57 496.6 326.739 499.92 448.742 507.16Z" fill="white"/>
</g>
<defs>
<clipPath id="clip0_1_122">
<rect width="1920" height="40" fill="white" transform="translate(0 0.130005)"/>
</clipPath>
<clipPath id="clip1_1_122">
<rect width="1920" height="40" fill="white" transform="matrix(-1 0 0 -1 1920 518.72)"/>
</clipPath>
</defs>
</svg>
